<?xml version="1.0" encoding="utf-8"?>
<!-- Generator: Adobe Illustrator 21.1.0, SVG Export Plug-In . SVG Version: 6.00 Build 0)  -->
<svg version="1.1" id="레이어_1" xmlns="http://www.w3.org/2000/svg" xmlns:xlink="http://www.w3.org/1999/xlink" x="0px"
	 y="0px" viewBox="0 0 313.7 313.7" style="enable-background:new 0 0 313.7 313.7;" xml:space="preserve">
<style type="text/css">
	.st0{display:none;}
	.st1{fill:none;stroke:#000000;stroke-width:7;stroke-linecap:round;stroke-linejoin:round;stroke-miterlimit:10;}
</style>
<title>N_A_006_2Artboard 1 copy 9</title>
<path class="st0" d="M297.8,300.5c-1.3,0-128.6-0.3-209.5-22.3C74.2,274.4,70,272,68.8,271c3.8-2.5,22-5,36.8-6.9
	c36.3-4.8,77.4-10.3,75.4-27.9C178,209.2,75.9,211,32.9,213l36.1-13.5c0.7,0,1.3-0.3,1.8-0.8l0.4-0.4l0,0L223.7,45.8
	c1-1,1-2.7,0-3.7c0,0,0,0,0,0L190.2,8.7c-1-1-2.7-1-3.7,0L33.5,161.6c-0.4,0.4-0.7,1-0.7,1.6l-19.5,52.4c0,0,0,0,0,0
	c0,0,0,0.1,0,0.1c-0.1,0.3-0.1,0.5-0.1,0.8c0,0,0,0.1,0,0.1c0,0,0,0.1,0,0.1c0,0.3,0.1,0.5,0.2,0.8c0,0,0,0.1,0,0.1
	c0.1,0.2,0.3,0.5,0.5,0.7c0,0,0.1,0,0.1,0.1c0.1,0.1,0.2,0.1,0.3,0.2c0.2,0.1,0.4,0.3,0.6,0.3c0.1,0,0.2,0,0.3,0.1
	c0.2,0.1,0.4,0.1,0.6,0.1c0,0,0.1,0,0.1,0H16c60.6-4.1,157.5-3,159.9,17.5c1.4,12.5-42.1,18.3-70.9,22.1c-31.3,4.2-41.4,6-41.8,11.8
	c-0.3,3.9,3.5,7.1,23.8,12.6c81.5,22.2,209.6,22.5,210.9,22.5c1.5,0,2.6-1.2,2.6-2.6C300.5,301.7,299.3,300.5,297.8,300.5
	L297.8,300.5z M36.6,168.3L64,195.8l-20.9,7.8l-14.4-14.3L36.6,168.3z M69.1,192.9l-13-13L205.1,31l13,13L69.1,192.9z M188.3,14.2
	l13,13l-149,149l-13-13L188.3,14.2z M26.8,194.7l10.9,10.9l-17.4,6.5L26.8,194.7z"/>
<polygon class="st1" points="16.5,215.7 32.2,160.1 184.6,6.4 225.9,47.9 72.9,200.2 "/>
<line class="st1" x1="32.2" y1="160.1" x2="69.1" y2="196.7"/>
<line class="st1" x1="53" y1="179.4" x2="205.5" y2="28"/>
<line class="st1" x1="26.4" y1="189.8" x2="42.2" y2="206.4"/>
<path class="st1" d="M16.5,215.7c56.8-1.5,135.8-3.8,156.7,12.6c20.4,16.1-16.4,27.7-64.8,32.2c-50.4,4.7-56.1,11.6-16.7,21.9
	c39.9,10.4,162,25.3,206.8,21.3"/>
</svg>
